<?xml version="1.0" encoding="UTF-8" standalone="no"?>
<svg
   xmlns:dc="http://purl.org/dc/elements/1.1/"
   xmlns:cc="http://creativecommons.org/ns#"
   xmlns:rdf="http://www.w3.org/1999/02/22-rdf-syntax-ns#"
   xmlns:svg="http://www.w3.org/2000/svg"
   xmlns="http://www.w3.org/2000/svg"
   xmlns:sodipodi="http://sodipodi.sourceforge.net/DTD/sodipodi-0.dtd"
   xmlns:inkscape="http://www.inkscape.org/namespaces/inkscape"
   viewBox="0 0 204.72104 265.51291"
   version="1.1"
   id="svg36"
   sodipodi:docname="request.svg"
   width="204.72104"
   height="265.51291"
   inkscape:version="0.92.3 (2405546, 2018-03-11)"
   inkscape:export-filename="/home/grundmann/ruby-on-rails/fahrsammlung/app/assets/images/map/request.png"
   inkscape:export-xdpi="14.462574"
   inkscape:export-ydpi="14.462574">
  <metadata
     id="metadata42">
    <rdf:RDF>
      <cc:Work
         rdf:about="">
        <dc:format>image/svg+xml</dc:format>
        <dc:type
           rdf:resource="http://purl.org/dc/dcmitype/StillImage" />
        <dc:title />
      </cc:Work>
    </rdf:RDF>
  </metadata>
  <defs
     id="defs40" />
  <sodipodi:namedview
     pagecolor="#ffffff"
     bordercolor="#666666"
     borderopacity="1"
     objecttolerance="10"
     gridtolerance="10"
     guidetolerance="10"
     inkscape:pageopacity="0"
     inkscape:pageshadow="2"
     inkscape:window-width="1044"
     inkscape:window-height="675"
     id="namedview38"
     showgrid="false"
     fit-margin-top="0"
     fit-margin-left="0"
     fit-margin-right="0"
     fit-margin-bottom="0"
     inkscape:zoom="0.78925641"
     inkscape:cx="211.70162"
     inkscape:cy="174.04929"
     inkscape:window-x="708"
     inkscape:window-y="129"
     inkscape:window-maximized="0"
     inkscape:current-layer="g34" />
  <g
     transform="translate(-153.26748,-500.5)"
     id="g34">
    <path
       d="m 163.28,593.09 c -13.712,0 -12.91,19.461 -0.22471,19.461 h 40.087 c 12.685,0 13.487,-19.461 -0.22474,-19.461 h -39.637 z"
       id="path4"
       inkscape:connector-curvature="0"
       style="fill:#e561ac;fill-opacity:1" />
    <path
       d="m 195.21,597.27 c -7.879,11.222 8.509,21.748 15.798,11.366 l 18.038,-25.691 c 12.882,-19.015 17.252,-22.07 8.5326,-27.203 -4.3694,-2.2796 -8.194,-7.147 -19.592,9.0878 l -22.776,32.44 z"
       id="path6"
       inkscape:connector-curvature="0"
       style="fill:#e561ac;fill-opacity:1" />
    <path
       d="m 234.62,552.78 c -9.2157,0 -11.989,8.0025 -11.989,11.686 v 22.324 l 0.13785,166.8 c 0,16.687 24.529,16.558 24.529,-0.3583 l 0.0551,-97.041 h 4.6577 l 0.0551,97.041 c 0,16.917 24.529,17.045 24.529,0.3583 l 0.13779,-166.8 v -22.324 c 0,-3.6832 -2.7732,-11.686 -11.989,-11.686 h -5.7602 c -0.13997,0.99996 -3.2797,3.9136 -3.2797,3.9136 l -1.5434,32.257 -1.9843,-28.398 1.378,-3.638 c -1.1836,-1.024 -2.8455,-2.4852 -3.886,-3.3624 -1.0849,0.87817 -2.6508,2.3175 -3.8585,3.3624 l 1.378,3.638 -1.9843,28.398 -1.5434,-32.257 c 0,0 -3.1397,-2.9136 -3.2797,-3.9136 z"
       id="path8"
       inkscape:connector-curvature="0"
       style="fill:#e561ac;fill-opacity:1" />
    <path
       d="m 314.1,639.54 c 3.3468,13.297 -15.721,17.27 -18.817,4.9679 l -9.7843,-38.874 c -3.0963,-12.302 15.581,-17.829 18.927,-4.532 l 9.6746,38.439 z"
       id="path10"
       inkscape:connector-curvature="0"
       style="fill:#e561ac;fill-opacity:1" />
    <path
       d="m 303.21,597.27 c 7.879,11.222 -8.509,21.748 -15.798,11.366 l -18.038,-25.691 c -12.882,-19.015 -17.252,-22.07 -8.5326,-27.203 4.3693,-2.2796 8.194,-7.147 19.592,9.0878 l 22.776,32.44 z"
       id="path12"
       inkscape:connector-curvature="0"
       style="fill:#e561ac;fill-opacity:1" />
    <path
       d="m 296.17,641.44 c -3.9447,0 -6.1735,1.9791 -6.1735,5.6775 v 9.8667 h -13.505 v 72.043 h 57.409 v -72.043 h -13.505 v -9.8667 c 0,-3.6984 -2.2287,-5.6775 -6.1736,-5.6775 h -18.052 z m -0.11018,5.7877 h 18.273 v 9.7564 h -18.273 z m -33.707,9.7564 c -6.2327,0 -9.9494,5.2221 -9.9494,9.9494 v 52.2 c 0,4.7273 3.3741,9.8943 9.9494,9.8943 h 9.2053 v -72.043 z m 76.481,0 v 72.043 h 9.2054 c 6.5752,0 9.9493,-5.167 9.9493,-9.8943 v -52.2 c 0,-4.7273 -3.7166,-9.9494 -9.9493,-9.9494 z"
       id="path14"
       inkscape:connector-curvature="0"
       style="fill:#e561ac;fill-opacity:1" />
    <path
       d="m 236.81,500.5 c 0,0 -1.4246,4.6876 0.6875,8.4375 -5.8124,3.8729 -9.6562,10.492 -9.6562,18 0,11.934 9.6594,21.594 21.594,21.594 11.9346,0 21.625,-9.6593 21.625,-21.594 0,-11.913 -9.6584,-21.592 -21.562,-21.625 h -0.0625 c -12.174,-1.488 -12.625,-4.8125 -12.625,-4.8125 z"
       id="path26"
       inkscape:connector-curvature="0"
       style="fill:#e561ac;fill-opacity:1" />
    <path
       d="M 356.16,526.92"
       id="path28"
       inkscape:connector-curvature="0"
       style="fill:#e561ac;fill-opacity:1" />
    <path
       d="m 249.4364,505.3126 c -11.934,0 -21.608,9.674 -21.608,21.608 0,0.57831 0.0378,1.1419 0.0827,1.7088 -0.56013,13.998 -4.2167,14.69 -4.2167,14.69 0,0 5.8748,1.3931 9.536,-2.1222 3.9594,4.4931 9.7458,7.3311 16.206,7.3311 6.4448,0 12.219,-2.8274 16.178,-7.3036 3.6616,3.5091 9.5636,2.0946 9.5636,2.0946 0,0 -3.6566,-0.69143 -4.2168,-14.69 0.0445,-0.56686 0.0826,-1.1304 0.0826,-1.7088 0,-11.934 -9.6749,-21.608 -21.608,-21.608 z"
       id="path30"
       inkscape:connector-curvature="0"
       style="fill:#e561ac;fill-opacity:1" />
  </g>
</svg>
